Patient4_TMGait_0pt7_02_right_25_EMG.mot
version=1
nRows=20
nColumns=33
inDegrees=no
endheader
time	1LAddLong	2LGlutMax	3LGlutMed	4LIliopsoas	5LSemiMemb	6LBicFemLong	7LRecFem	8LVastMed	9LVastLat	10LGasMed	11LTibAnt	12lTibPost	13LPeroneusLong	14LSol	15LExtDigLong	16LFlexDigLong	17RAddLong	18RGlutMax	19RGlutMed	20RIliopsoas	21RSemiMemb	22RBicFemLong	23RRecFem	24RVastMed	25RVastLat	26RGasMed	27RTibAnt	28RTibPost	29RPeroneusLong	30RSol	31RExtDigLong	32RFlexDigLong
28.685	0.025482	0.27298	-0.039825	0.016022	0.019531	-0.36957	0.011139	-0.037842	-0.43106	-0.010834	0.008545	0.023041	-0.078278	-0.061798	-0.005798	-0.000916	-0.055084	0.012817	0.2124	0.13397	0.036774	-0.041351	-0.45914	0.048676	0.043335	-0.04425	0.058441	0.008392	-0.34103	-0.26306	-0.00351	-0.009003
28.686	0.009766	0.26901	-0.084229	0.001831	0.050507	-0.63141	-0.0914	-0.03006	-0.35111	0.050201	-0.003967	0.031891	-0.090332	-0.055542	-0.00351	-0.005493	-0.049438	-0.062103	-0.21072	0.029602	0.036469	0.03006	-0.48294	0.077362	0.066376	-0.1059	0.04715	0.002441	-0.26245	-0.02121	-0.002289	-0.011139
28.687	0.00824	0.34164	-0.11963	-0.009308	0.042419	-0.40802	-0.22934	-0.019836	-0.20096	0.079651	0.00885	0.037231	-0.056305	-0.024414	-0.001373	-0.009613	-0.038147	-0.03067	0.10605	-0.062714	0.036621	0.11673	-0.45868	0.077209	0.055542	-0.17761	-0.0177	-0.00412	-0.00473	-0.009613	0.001526	-0.007019
28.688	0.005188	0.35278	-0.097961	-0.001526	0.053101	-0.20569	-0.20355	-0.005493	-0.027466	0.10742	0.002594	0.028381	0.023956	-0.032654	-0.004425	0.009766	-0.044556	0.015869	-0.11185	-0.062103	0.006256	0.25085	-0.42786	0.055389	0.056	-0.11887	-0.024414	-0.026398	0.2034	-0.049133	-0.001221	-0.011597
28.689	0.01358	0.24612	-0.061951	0.007019	0.040131	-0.14221	-0.10208	0.001068	-0.022278	0.087738	0.001678	0.019989	0.032654	-0.066833	-0.025482	-0.001526	-0.000916	0.001373	-0.41122	-0.025635	0.016937	0.28153	-0.4007	-0.001984	0.037842	0.061035	-0.048218	-0.027771	0.44556	0.030518	0.000458	-0.009003
28.69	0.010071	0.18524	-0.009613	0.032501	-0.010834	-0.10025	0.030518	-0.006256	-0.033417	-0.10941	0.001068	0.019989	0.065613	-0.10773	-0.029907	-0.005951	0.041199	-0.056458	0.057373	-0.001831	0.037842	0.18585	-0.43137	-0.020447	0.050049	0.011597	-0.036926	-0.23041	0.54367	-0.048523	0	-0.005646
28.691	0.020905	0.15182	0.063629	0.007324	-0.076447	-0.13016	0.058289	0.016022	-0.011139	-0.24735	0.002289	0.015259	0.09552	-0.12375	-0.013885	0.001221	0.063324	-0.045319	0.59952	-0.036163	0.042267	0.072174	-0.41168	-0.060883	0.041656	0.032196	0.005951	-0.12619	0.30456	-0.52673	0.006561	-0.016632
28.692	0.020142	0.069122	0.074463	-0.014038	-0.061951	-0.112	-0.034485	0.022125	-0.04837	-0.16113	-0.008545	0.015564	0.052185	-0.11292	-0.013733	-0.000305	0.077972	-0.093384	-0.10788	-0.000916	0.021515	0.037537	-0.41962	-0.007019	0.032349	0.033112	0.021362	0.25177	0.19974	-0.88531	0.010529	-0.01709
28.693	0.005493	0.1265	0.074768	0.014496	-0.005951	-0.0383	-0.12314	-0.012054	-0.037537	-0.10727	-0.000458	0.019531	0.022583	-0.14206	-0.015411	-0.002747	0.072784	-0.043488	-0.67566	0.12085	-0.006714	0.018005	-0.46402	-0.001068	0.035553	0.033722	0.011292	0.12283	0.22675	-1.0622	0.000458	-0.01358
28.694	-0.017548	0.1976	0.074768	0.032501	-0.023499	0.02182	-0.10666	-0.021515	-0.14877	-0.092621	0.010071	0.036774	0.024567	-0.097351	-0.02243	0.005035	0.061951	0.015564	-0.032654	0.15121	0.000153	0.042572	-0.46143	-0.03006	0.024872	0.031738	0.000916	0.057831	0.12405	-0.36636	0.002747	-0.018921
28.695	-0.035858	0.31479	0.064545	0.003052	-0.030212	0.033264	-0.1915	-0.032959	-0.18646	-0.040894	0.003967	0.11948	0.039215	-0.14023	-0.019836	0.002899	0.060883	-0.013885	0.41962	0.078735	0.050507	0.10498	-0.46493	-0.035248	0.034332	0.026855	0.03067	-0.020599	-0.081787	0.65201	0.001373	-0.018463
28.696	-0.04425	0.36575	-0.007935	0.010986	0.095825	0.1239	-0.13596	-0.041809	-0.18234	0.008392	0.001984	-0.035858	0.053711	-0.12451	-0.025024	0.013123	0.054474	0.058136	0.7161	-0.012207	0.12024	0.11032	-0.49988	-0.00885	0.020752	0.026703	0.044403	0.047455	-0.25101	0.62027	0.000458	-0.022583
28.697	0.052032	0.36163	-0.046234	0.011597	0.069122	0.23468	-0.15854	-0.023041	-0.11581	0.029449	0.003052	-0.089569	0.031586	0.063019	-0.031586	0.008392	0.053101	0.069733	-0.10468	-0.06424	0.1088	0.068054	-0.49881	-0.023956	0.019531	0.019379	0.016937	0.002136	-0.34897	0.41916	-0.001068	-0.017242
28.698	0.036316	0.31494	-0.073242	0.01709	-0.056	0.30746	-0.19669	-0.001068	-0.075073	0.015259	0.009308	0.014191	0.03891	0.039825	-0.042114	-0.005798	0.059509	0.054016	-0.29724	-0.11932	0.11383	-0.020142	-0.44174	-0.046082	0.020599	0.0177	0	-0.029907	-0.28	0.16739	0.000153	-0.015717
28.699	0.015717	0.18051	-0.12207	0.013885	-0.059814	0.27298	-0.2092	0.021667	0.017242	-0.028839	0.002289	0.015106	0.058594	0.049438	0.007172	-0.017242	0.032196	0.062103	-0.11902	-0.065765	0.09903	-0.099182	-0.47348	-0.007782	0.018463	0.017853	0.005798	-0.030212	-0.28076	0.067291	0.000458	-0.012817
28.7	0.029755	0.15656	-0.13077	0.006561	-0.000153	0.17685	-0.2449	0.023956	0.1091	-0.039978	-0.001068	0.005798	0.054932	0.020905	0.058746	-0.041199	0.014038	0.15457	-0.28809	-0.046844	0.079346	-0.10437	-0.52521	0.039978	0.024109	0.031586	-0.009918	-0.001068	-0.168	-0.006561	-0.000763	-0.00946
28.701	0.07019	0.17319	-0.18814	0.004578	0.060577	0.12497	-0.18509	0.005798	0.15259	-0.070038	-0.002899	-0.010223	0.045319	-0.040894	-0.010529	-0.066681	-0.007629	0.082397	-0.21225	-0.028534	0.055237	-0.094757	-0.47852	0.008545	0.024872	0.032349	-0.00351	0.007172	-0.003357	-0.081177	0	-0.016022
28.702	0.06485	0.19745	-0.1828	0.020142	0.052948	0.12955	-0.16968	-0.01297	0.061646	-0.089722	0.011902	-0.008087	0.026093	-0.092621	-0.049896	0.019836	-0.010681	0.11993	0.15839	-0.041504	0.043182	-0.0383	-0.53436	0.006714	0.018616	0.026245	0.019684	0.003204	0.11307	-0.091705	0.002594	-0.015564
28.703	0.061798	0.20309	-0.11612	0.015259	0.035553	0.11749	-0.10529	-0.015106	-0.05127	-0.082092	0.011139	-0.004425	0.023499	-0.050354	-0.044403	0.12955	-0.057068	0.1329	0.59097	-0.017395	0.048676	0.00473	-0.51773	0.009003	0.036621	0.021973	0.002136	-0.017548	0.21378	-0.05127	-0.000458	-0.008545
28.704	0.054169	0.20752	-0.079041	-0.018158	0.046997	0.087891	-0.10788	-0.024414	-0.11047	-0.05722	0.001984	-0.006256	0.021057	-0.003357	-0.026093	0.012665	-0.054321	0.05722	0.22629	0.021057	0.039368	0.023804	-0.51041	0.026245	0.016479	0.023956	-0.018768	-0.023804	0.15961	-0.009613	-0.001831	-0.016174
